%TF.GenerationSoftware,KiCad,Pcbnew,9.0.3*%
%TF.CreationDate,2025-07-13T22:15:26+07:00*%
%TF.ProjectId,Automative_Hexapod,4175746f-6d61-4746-9976-655f48657861,rev?*%
%TF.SameCoordinates,Original*%
%TF.FileFunction,Soldermask,Top*%
%TF.FilePolarity,Negative*%
%FSLAX46Y46*%
G04 Gerber Fmt 4.6, Leading zero omitted, Abs format (unit mm)*
G04 Created by KiCad (PCBNEW 9.0.3) date 2025-07-13 22:15:26*
%MOMM*%
%LPD*%
G01*
G04 APERTURE LIST*
G04 Aperture macros list*
%AMRoundRect*
0 Rectangle with rounded corners*
0 $1 Rounding radius*
0 $2 $3 $4 $5 $6 $7 $8 $9 X,Y pos of 4 corners*
0 Add a 4 corners polygon primitive as box body*
4,1,4,$2,$3,$4,$5,$6,$7,$8,$9,$2,$3,0*
0 Add four circle primitives for the rounded corners*
1,1,$1+$1,$2,$3*
1,1,$1+$1,$4,$5*
1,1,$1+$1,$6,$7*
1,1,$1+$1,$8,$9*
0 Add four rect primitives between the rounded corners*
20,1,$1+$1,$2,$3,$4,$5,0*
20,1,$1+$1,$4,$5,$6,$7,0*
20,1,$1+$1,$6,$7,$8,$9,0*
20,1,$1+$1,$8,$9,$2,$3,0*%
%AMFreePoly0*
4,1,59,-0.244934,0.689215,-0.224050,0.684585,-0.219038,0.682284,-0.123478,0.671518,-0.112388,0.668986,0.034501,0.617587,0.044750,0.612652,0.176519,0.529856,0.185413,0.522763,0.295454,0.412722,0.302547,0.403828,0.385343,0.272059,0.390278,0.261810,0.441677,0.114921,0.443311,0.107754,0.445370,0.102788,0.456544,0.046610,0.457520,0.036700,0.457520,-0.014307,0.461633,-0.050812,
0.461633,-0.062188,0.444209,-0.216831,0.441677,-0.227921,0.390278,-0.374810,0.385343,-0.385059,0.302547,-0.516828,0.295454,-0.525722,0.185413,-0.635763,0.176519,-0.642856,0.044750,-0.725652,0.034501,-0.730587,-0.112388,-0.781986,-0.123478,-0.784518,-0.278121,-0.801942,-0.295113,-0.800987,-0.350216,-0.788410,-0.370585,-0.778601,-0.414775,-0.743361,-0.428871,-0.725685,-0.453394,-0.674762,
-0.458425,-0.652721,-0.458425,-0.596246,-0.458924,-0.594255,-0.461364,-0.569479,-0.461609,-0.564500,-0.461609,0.451500,-0.461364,0.456479,-0.458924,0.481255,-0.458425,0.483246,-0.458425,0.539721,-0.453394,0.561762,-0.428871,0.612685,-0.414775,0.630361,-0.370585,0.665601,-0.350214,0.675411,-0.339851,0.677775,-0.336656,0.680068,-0.306736,0.689590,-0.244934,0.689215,-0.244934,0.689215,
$1*%
%AMFreePoly1*
4,1,55,-0.061125,0.745715,-0.040241,0.741085,-0.035229,0.738784,0.060331,0.728018,0.071421,0.725486,0.218310,0.674087,0.228559,0.669152,0.360328,0.586356,0.369222,0.579263,0.479263,0.469222,0.486356,0.460328,0.569152,0.328559,0.574087,0.318310,0.625486,0.171421,0.628018,0.160331,0.645442,0.005688,0.645442,-0.005688,0.628018,-0.160331,0.625486,-0.171421,0.574087,-0.318310,
0.569152,-0.328559,0.486356,-0.460328,0.479263,-0.469222,0.369222,-0.579263,0.360328,-0.586356,0.228559,-0.669152,0.218310,-0.674087,0.071421,-0.725486,0.060331,-0.728018,-0.094312,-0.745442,-0.111304,-0.744487,-0.166407,-0.731910,-0.186776,-0.722101,-0.230966,-0.686861,-0.245062,-0.669185,-0.269585,-0.618262,-0.274616,-0.596221,-0.274616,-0.539746,-0.275115,-0.537755,-0.277555,-0.512979,
-0.277800,-0.508000,-0.277800,0.508000,-0.277555,0.512979,-0.275115,0.537755,-0.274616,0.539746,-0.274616,0.596221,-0.269585,0.618262,-0.245062,0.669185,-0.230966,0.686861,-0.186776,0.722101,-0.166405,0.731911,-0.156042,0.734275,-0.152847,0.736568,-0.122927,0.746090,-0.061125,0.745715,-0.061125,0.745715,$1*%
G04 Aperture macros list end*
%ADD10RoundRect,0.250400X-0.275400X0.250400X-0.275400X-0.250400X0.275400X-0.250400X0.275400X0.250400X0*%
%ADD11RoundRect,0.250400X0.275400X-0.250400X0.275400X0.250400X-0.275400X0.250400X-0.275400X-0.250400X0*%
%ADD12RoundRect,0.250400X0.250400X0.275400X-0.250400X0.275400X-0.250400X-0.275400X0.250400X-0.275400X0*%
%ADD13RoundRect,0.158750X-0.622300X-0.158750X0.622300X-0.158750X0.622300X0.158750X-0.622300X0.158750X0*%
%ADD14RoundRect,0.225400X-0.300400X0.225400X-0.300400X-0.225400X0.300400X-0.225400X0.300400X0.225400X0*%
%ADD15RoundRect,0.050800X-2.000000X2.250000X-2.000000X-2.250000X2.000000X-2.250000X2.000000X2.250000X0*%
%ADD16RoundRect,0.225400X-0.225400X-0.300400X0.225400X-0.300400X0.225400X0.300400X-0.225400X0.300400X0*%
%ADD17RoundRect,0.275400X-0.500400X0.275400X-0.500400X-0.275400X0.500400X-0.275400X0.500400X0.275400X0*%
%ADD18RoundRect,0.125400X-0.662900X-0.125400X0.662900X-0.125400X0.662900X0.125400X-0.662900X0.125400X0*%
%ADD19RoundRect,0.250400X-0.250400X-0.275400X0.250400X-0.275400X0.250400X0.275400X-0.250400X0.275400X0*%
%ADD20RoundRect,0.050800X0.400000X0.250000X-0.400000X0.250000X-0.400000X-0.250000X0.400000X-0.250000X0*%
%ADD21RoundRect,0.050800X0.400000X0.200000X-0.400000X0.200000X-0.400000X-0.200000X0.400000X-0.200000X0*%
%ADD22RoundRect,0.260809X1.539991X-0.964991X1.539991X0.964991X-1.539991X0.964991X-1.539991X-0.964991X0*%
%ADD23RoundRect,0.125400X0.662900X0.125400X-0.662900X0.125400X-0.662900X-0.125400X0.662900X-0.125400X0*%
%ADD24FreePoly0,90.000000*%
%ADD25FreePoly1,270.000000*%
%ADD26RoundRect,0.274780X0.476020X-0.288520X0.476020X0.288520X-0.476020X0.288520X-0.476020X-0.288520X0*%
%ADD27RoundRect,0.050800X-0.400000X-0.250000X0.400000X-0.250000X0.400000X0.250000X-0.400000X0.250000X0*%
%ADD28RoundRect,0.050800X-0.400000X-0.200000X0.400000X-0.200000X0.400000X0.200000X-0.400000X0.200000X0*%
%ADD29RoundRect,0.272087X-0.678713X0.353713X-0.678713X-0.353713X0.678713X-0.353713X0.678713X0.353713X0*%
%ADD30RoundRect,0.275400X0.275400X0.500400X-0.275400X0.500400X-0.275400X-0.500400X0.275400X-0.500400X0*%
%ADD31RoundRect,0.258467X1.292333X1.292333X-1.292333X1.292333X-1.292333X-1.292333X1.292333X-1.292333X0*%
%ADD32C,3.101600*%
%ADD33FreePoly0,270.000000*%
%ADD34FreePoly1,90.000000*%
%ADD35RoundRect,0.275400X0.500400X-0.275400X0.500400X0.275400X-0.500400X0.275400X-0.500400X-0.275400X0*%
%ADD36RoundRect,0.225400X0.300400X-0.225400X0.300400X0.225400X-0.300400X0.225400X-0.300400X-0.225400X0*%
%ADD37RoundRect,0.225400X0.225400X0.300400X-0.225400X0.300400X-0.225400X-0.300400X0.225400X-0.300400X0*%
%ADD38RoundRect,0.269150X0.481650X-0.269150X0.481650X0.269150X-0.481650X0.269150X-0.481650X-0.269150X0*%
%ADD39RoundRect,0.050800X0.266700X0.584200X-0.266700X0.584200X-0.266700X-0.584200X0.266700X-0.584200X0*%
%ADD40RoundRect,0.272087X-0.353713X-0.678713X0.353713X-0.678713X0.353713X0.678713X-0.353713X0.678713X0*%
%ADD41RoundRect,0.269150X-0.481650X0.269150X-0.481650X-0.269150X0.481650X-0.269150X0.481650X0.269150X0*%
%ADD42RoundRect,0.272087X0.678713X-0.353713X0.678713X0.353713X-0.678713X0.353713X-0.678713X-0.353713X0*%
%ADD43RoundRect,0.265875X0.584925X-1.534925X0.584925X1.534925X-0.584925X1.534925X-0.584925X-1.534925X0*%
%ADD44RoundRect,1.220320X1.830480X-1.830480X1.830480X1.830480X-1.830480X1.830480X-1.830480X-1.830480X0*%
%ADD45C,6.101600*%
%ADD46RoundRect,0.320320X0.480480X1.230480X-0.480480X1.230480X-0.480480X-1.230480X0.480480X-1.230480X0*%
%ADD47RoundRect,0.300320X0.450480X1.250480X-0.450480X1.250480X-0.450480X-1.250480X0.450480X-1.250480X0*%
%ADD48RoundRect,0.275400X-0.275400X-0.500400X0.275400X-0.500400X0.275400X0.500400X-0.275400X0.500400X0*%
%ADD49RoundRect,0.320320X-1.230480X0.480480X-1.230480X-0.480480X1.230480X-0.480480X1.230480X0.480480X0*%
%ADD50RoundRect,0.300320X-1.250480X0.450480X-1.250480X-0.450480X1.250480X-0.450480X1.250480X0.450480X0*%
%ADD51RoundRect,0.320320X1.230480X-0.480480X1.230480X0.480480X-1.230480X0.480480X-1.230480X-0.480480X0*%
%ADD52RoundRect,0.300320X1.250480X-0.450480X1.250480X0.450480X-1.250480X0.450480X-1.250480X-0.450480X0*%
%ADD53RoundRect,0.050800X-0.950000X-0.700000X0.950000X-0.700000X0.950000X0.700000X-0.950000X0.700000X0*%
%ADD54O,2.001600X1.501600*%
%ADD55RoundRect,0.320320X-0.480480X-1.230480X0.480480X-1.230480X0.480480X1.230480X-0.480480X1.230480X0*%
%ADD56RoundRect,0.300320X-0.450480X-1.250480X0.450480X-1.250480X0.450480X1.250480X-0.450480X1.250480X0*%
%ADD57RoundRect,0.259770X-1.091030X1.091030X-1.091030X-1.091030X1.091030X-1.091030X1.091030X1.091030X0*%
%ADD58C,2.701600*%
%ADD59RoundRect,0.264111X1.036689X0.686689X-1.036689X0.686689X-1.036689X-0.686689X1.036689X-0.686689X0*%
%ADD60RoundRect,0.050800X-0.850000X0.850000X-0.850000X-0.850000X0.850000X-0.850000X0.850000X0.850000X0*%
%ADD61O,1.801600X1.801600*%
%ADD62C,0.901600*%
%ADD63C,6.501600*%
%ADD64C,1.625600*%
G04 APERTURE END LIST*
D10*
%TO.C,C4*%
X102201600Y-122885000D03*
X102201600Y-124435000D03*
%TD*%
D11*
%TO.C,C22*%
X123495600Y-51625800D03*
X123495600Y-50075800D03*
%TD*%
D12*
%TO.C,C18*%
X118444800Y-52881800D03*
X116894800Y-52881800D03*
%TD*%
D13*
%TO.C,U1*%
X94831700Y-121615000D03*
X94831700Y-122885000D03*
X94831700Y-124155000D03*
X94831700Y-125425000D03*
X100280000Y-125425000D03*
X100280000Y-124155000D03*
X100280000Y-122885000D03*
X100280000Y-121615000D03*
%TD*%
D14*
%TO.C,R5*%
X103661600Y-122885000D03*
X103661600Y-124535000D03*
%TD*%
D15*
%TO.C,F1*%
X67438200Y-122650000D03*
X67438200Y-129350000D03*
%TD*%
D16*
%TO.C,R19*%
X92410700Y-82169200D03*
X94060700Y-82169200D03*
%TD*%
D17*
%TO.C,C31*%
X124383800Y-58740000D03*
X124383800Y-60640000D03*
%TD*%
D18*
%TO.C,U3*%
X97467500Y-90771000D03*
X97467500Y-91421000D03*
X97467500Y-92071000D03*
X97467500Y-92721000D03*
X97467500Y-93371000D03*
X97467500Y-94021000D03*
X97467500Y-94671000D03*
X97467500Y-95321000D03*
X97467500Y-95971000D03*
X97467500Y-96621000D03*
X97467500Y-97271000D03*
X97467500Y-97921000D03*
X97467500Y-98571000D03*
X97467500Y-99221000D03*
X103192500Y-99221000D03*
X103192500Y-98571000D03*
X103192500Y-97921000D03*
X103192500Y-97271000D03*
X103192500Y-96621000D03*
X103192500Y-95971000D03*
X103192500Y-95321000D03*
X103192500Y-94671000D03*
X103192500Y-94021000D03*
X103192500Y-93371000D03*
X103192500Y-92721000D03*
X103192500Y-92071000D03*
X103192500Y-91421000D03*
X103192500Y-90771000D03*
%TD*%
D19*
%TO.C,C6*%
X98760850Y-119975000D03*
X100310850Y-119975000D03*
%TD*%
D20*
%TO.C,R33*%
X94007500Y-99221000D03*
D21*
X94007500Y-98421000D03*
X94007500Y-97621000D03*
D20*
X94007500Y-96821000D03*
X92207500Y-96821000D03*
D21*
X92207500Y-97621000D03*
X92207500Y-98421000D03*
D20*
X92207500Y-99221000D03*
%TD*%
D22*
%TO.C,L1*%
X105525850Y-119380000D03*
X105525850Y-113330000D03*
%TD*%
D23*
%TO.C,U4*%
X103395700Y-79739200D03*
X103395700Y-79089200D03*
X103395700Y-78439200D03*
X103395700Y-77789200D03*
X103395700Y-77139200D03*
X103395700Y-76489200D03*
X103395700Y-75839200D03*
X103395700Y-75189200D03*
X103395700Y-74539200D03*
X103395700Y-73889200D03*
X103395700Y-73239200D03*
X103395700Y-72589200D03*
X103395700Y-71939200D03*
X103395700Y-71289200D03*
X97670700Y-71289200D03*
X97670700Y-71939200D03*
X97670700Y-72589200D03*
X97670700Y-73239200D03*
X97670700Y-73889200D03*
X97670700Y-74539200D03*
X97670700Y-75189200D03*
X97670700Y-75839200D03*
X97670700Y-76489200D03*
X97670700Y-77139200D03*
X97670700Y-77789200D03*
X97670700Y-78439200D03*
X97670700Y-79089200D03*
X97670700Y-79739200D03*
%TD*%
D16*
%TO.C,R29*%
X92410700Y-76059200D03*
X94060700Y-76059200D03*
%TD*%
D17*
%TO.C,C33*%
X124475200Y-69510000D03*
X124475200Y-71410000D03*
%TD*%
D16*
%TO.C,R31*%
X92410700Y-74849200D03*
X94060700Y-74849200D03*
%TD*%
D24*
%TO.C,TP12*%
X106928300Y-80220680D03*
D25*
X106984800Y-81190311D03*
%TD*%
D26*
%TO.C,R6*%
X77954800Y-134973700D03*
X77954800Y-133148700D03*
%TD*%
D27*
%TO.C,R35*%
X106510700Y-71289200D03*
D28*
X106510700Y-72089200D03*
X106510700Y-72889200D03*
D27*
X106510700Y-73689200D03*
X108310700Y-73689200D03*
D28*
X108310700Y-72889200D03*
X108310700Y-72089200D03*
D27*
X108310700Y-71289200D03*
%TD*%
D24*
%TO.C,TP10*%
X111322500Y-80220680D03*
D25*
X111379000Y-81190311D03*
%TD*%
D24*
%TO.C,TP3*%
X91383500Y-86977080D03*
D25*
X91440000Y-87946711D03*
%TD*%
D29*
%TO.C,C10*%
X73431400Y-58830000D03*
X73431400Y-61780000D03*
%TD*%
D12*
%TO.C,C15*%
X127472199Y-54024600D03*
X125922199Y-54024600D03*
%TD*%
D17*
%TO.C,C65*%
X66260000Y-48610000D03*
X66260000Y-50510000D03*
%TD*%
D30*
%TO.C,C27*%
X86818503Y-133270000D03*
X84918503Y-133270000D03*
%TD*%
D14*
%TO.C,R15*%
X116889800Y-50075800D03*
X116889800Y-51725800D03*
%TD*%
D31*
%TO.C,SW1*%
X55448200Y-144400000D03*
D32*
X55448200Y-139700000D03*
X55448200Y-135000000D03*
X68398200Y-142200000D03*
X68398200Y-137200000D03*
%TD*%
D17*
%TO.C,C39*%
X124475200Y-82670000D03*
X124475200Y-84570000D03*
%TD*%
D33*
%TO.C,TP4*%
X109251100Y-83634720D03*
D34*
X109194600Y-82665089D03*
%TD*%
D35*
%TO.C,C53*%
X62994600Y-82658400D03*
X62994600Y-80758400D03*
%TD*%
D24*
%TO.C,TP8*%
X109138100Y-80220680D03*
D25*
X109194600Y-81190311D03*
%TD*%
D33*
%TO.C,TP11*%
X93680900Y-90416520D03*
D34*
X93624400Y-89446889D03*
%TD*%
D36*
%TO.C,R3*%
X91445850Y-127075000D03*
X91445850Y-125425000D03*
%TD*%
D19*
%TO.C,C25*%
X101642500Y-89201000D03*
X103192500Y-89201000D03*
%TD*%
D12*
%TO.C,C17*%
X127472199Y-52814600D03*
X125922199Y-52814600D03*
%TD*%
D33*
%TO.C,TP7*%
X91496500Y-90416520D03*
D34*
X91440000Y-89446889D03*
%TD*%
D37*
%TO.C,R20*%
X109650000Y-89516000D03*
X108000000Y-89516000D03*
%TD*%
D35*
%TO.C,C50*%
X121767600Y-139050000D03*
X121767600Y-137150000D03*
%TD*%
%TO.C,C45*%
X119140000Y-125890000D03*
X119140000Y-123990000D03*
%TD*%
D16*
%TO.C,R21*%
X92410700Y-80949200D03*
X94060700Y-80949200D03*
%TD*%
D35*
%TO.C,C59*%
X61244600Y-69512800D03*
X61244600Y-67612800D03*
%TD*%
D38*
%TO.C,D3*%
X77954800Y-131706200D03*
X77954800Y-129831200D03*
%TD*%
D12*
%TO.C,C24*%
X99220700Y-82519200D03*
X97670700Y-82519200D03*
%TD*%
D20*
%TO.C,R37*%
X94210700Y-73689200D03*
D21*
X94210700Y-72889200D03*
X94210700Y-72089200D03*
D20*
X94210700Y-71289200D03*
X92410700Y-71289200D03*
D21*
X92410700Y-72089200D03*
X92410700Y-72889200D03*
D20*
X92410700Y-73689200D03*
%TD*%
D17*
%TO.C,C41*%
X126235200Y-108950000D03*
X126235200Y-110850000D03*
%TD*%
D39*
%TO.C,Q2*%
X120644802Y-50075800D03*
X118744800Y-50075800D03*
X119694801Y-52107800D03*
%TD*%
D17*
%TO.C,C32*%
X126213800Y-58740000D03*
X126213800Y-60640000D03*
%TD*%
D35*
%TO.C,C49*%
X120880000Y-125890000D03*
X120880000Y-123990000D03*
%TD*%
D27*
%TO.C,R36*%
X107850000Y-96821000D03*
D28*
X107850000Y-97621000D03*
X107850000Y-98421000D03*
D27*
X107850000Y-99221000D03*
X109650000Y-99221000D03*
D28*
X109650000Y-98421000D03*
X109650000Y-97621000D03*
D27*
X109650000Y-96821000D03*
%TD*%
D38*
%TO.C,D2*%
X75954800Y-131706200D03*
X75954800Y-129831200D03*
%TD*%
D40*
%TO.C,C8*%
X98055850Y-115115000D03*
X101005850Y-115115000D03*
%TD*%
D35*
%TO.C,C52*%
X62994600Y-95798400D03*
X62994600Y-93898400D03*
%TD*%
%TO.C,C46*%
X120017600Y-139050000D03*
X120017600Y-137150000D03*
%TD*%
D33*
%TO.C,TP9*%
X89261300Y-90416520D03*
D34*
X89204800Y-89446889D03*
%TD*%
D20*
%TO.C,R32*%
X94007500Y-95751000D03*
D21*
X94007500Y-94951000D03*
X94007500Y-94151000D03*
D20*
X94007500Y-93351000D03*
X92207500Y-93351000D03*
D21*
X92207500Y-94151000D03*
X92207500Y-94951000D03*
D20*
X92207500Y-95751000D03*
%TD*%
D30*
%TO.C,C68*%
X113497400Y-53566000D03*
X111597400Y-53566000D03*
%TD*%
D14*
%TO.C,R13*%
X74650600Y-78829400D03*
X74650600Y-80479400D03*
%TD*%
D35*
%TO.C,C56*%
X61244600Y-109128400D03*
X61244600Y-107228400D03*
%TD*%
D29*
%TO.C,C12*%
X75641400Y-58830000D03*
X75641400Y-61780000D03*
%TD*%
D33*
%TO.C,TP6*%
X107041300Y-83634720D03*
D34*
X106984800Y-82665089D03*
%TD*%
D17*
%TO.C,C61*%
X68000000Y-48610000D03*
X68000000Y-50510000D03*
%TD*%
%TO.C,C38*%
X126235200Y-69510000D03*
X126235200Y-71410000D03*
%TD*%
D24*
%TO.C,TP5*%
X93567900Y-86977080D03*
D25*
X93624400Y-87946711D03*
%TD*%
D37*
%TO.C,R30*%
X109650000Y-95566000D03*
X108000000Y-95566000D03*
%TD*%
D12*
%TO.C,C3*%
X103746600Y-125831600D03*
X102196600Y-125831600D03*
%TD*%
D41*
%TO.C,D6*%
X132689600Y-59120900D03*
X132689600Y-60995900D03*
%TD*%
D42*
%TO.C,C14*%
X77841400Y-61780000D03*
X77841400Y-58830000D03*
%TD*%
D43*
%TO.C,C1*%
X87610000Y-122885000D03*
X87610000Y-117285000D03*
%TD*%
D35*
%TO.C,C51*%
X62994600Y-109128400D03*
X62994600Y-107228400D03*
%TD*%
D16*
%TO.C,R23*%
X92410700Y-79719200D03*
X94060700Y-79719200D03*
%TD*%
D30*
%TO.C,C64*%
X113497400Y-51816000D03*
X111597400Y-51816000D03*
%TD*%
D40*
%TO.C,C7*%
X98070850Y-112845000D03*
X101020850Y-112845000D03*
%TD*%
D17*
%TO.C,C34*%
X126235200Y-82670000D03*
X126235200Y-84570000D03*
%TD*%
D42*
%TO.C,C11*%
X75641400Y-67270000D03*
X75641400Y-64320000D03*
%TD*%
D37*
%TO.C,R28*%
X109650000Y-94346000D03*
X108000000Y-94346000D03*
%TD*%
D12*
%TO.C,C16*%
X118444800Y-54091800D03*
X116894800Y-54091800D03*
%TD*%
%TO.C,C26*%
X99220700Y-81309200D03*
X97670700Y-81309200D03*
%TD*%
D27*
%TO.C,R34*%
X106510700Y-74759200D03*
D28*
X106510700Y-75559200D03*
X106510700Y-76359200D03*
D27*
X106510700Y-77159200D03*
X108310700Y-77159200D03*
D28*
X108310700Y-76359200D03*
X108310700Y-75559200D03*
D27*
X108310700Y-74759200D03*
%TD*%
D42*
%TO.C,C2*%
X92475850Y-122885000D03*
X92475850Y-119935000D03*
%TD*%
D16*
%TO.C,R17*%
X119694801Y-48501800D03*
X121344801Y-48501800D03*
%TD*%
D37*
%TO.C,R26*%
X109650000Y-93126000D03*
X108000000Y-93126000D03*
%TD*%
D14*
%TO.C,R8*%
X107811600Y-122885000D03*
X107811600Y-124535000D03*
%TD*%
D17*
%TO.C,C36*%
X124475200Y-108950000D03*
X124475200Y-110850000D03*
%TD*%
D11*
%TO.C,C21*%
X132477199Y-51562600D03*
X132477199Y-50012600D03*
%TD*%
D44*
%TO.C,J1*%
X57608200Y-127960000D03*
D45*
X57608200Y-117960000D03*
%TD*%
D37*
%TO.C,R18*%
X109650000Y-88321000D03*
X108000000Y-88321000D03*
%TD*%
D46*
%TO.C,J23*%
X88239600Y-56553000D03*
X90779600Y-56553000D03*
X93319600Y-56553000D03*
D47*
X96479600Y-48753000D03*
X85079600Y-48753000D03*
%TD*%
D38*
%TO.C,D1*%
X73964800Y-131706200D03*
X73964800Y-129831200D03*
%TD*%
D29*
%TO.C,C13*%
X73431400Y-64320000D03*
X73431400Y-67270000D03*
%TD*%
D17*
%TO.C,C40*%
X126235200Y-95810000D03*
X126235200Y-97710000D03*
%TD*%
D11*
%TO.C,C20*%
X122224800Y-51625800D03*
X122224800Y-50075800D03*
%TD*%
D37*
%TO.C,R2*%
X89979000Y-125476000D03*
X88329000Y-125476000D03*
%TD*%
D33*
%TO.C,TP2*%
X111435500Y-83634720D03*
D34*
X111379000Y-82665089D03*
%TD*%
D26*
%TO.C,R11*%
X132689600Y-64310900D03*
X132689600Y-62485900D03*
%TD*%
D37*
%TO.C,R22*%
X109650000Y-90731000D03*
X108000000Y-90731000D03*
%TD*%
D16*
%TO.C,R25*%
X92410700Y-78489200D03*
X94060700Y-78489200D03*
%TD*%
D36*
%TO.C,R9*%
X106441600Y-124535000D03*
X106441600Y-122885000D03*
%TD*%
D16*
%TO.C,R16*%
X128727200Y-48424600D03*
X130377200Y-48424600D03*
%TD*%
D19*
%TO.C,C23*%
X101642500Y-87991000D03*
X103192500Y-87991000D03*
%TD*%
D39*
%TO.C,Q1*%
X129677201Y-50012600D03*
X127777199Y-50012600D03*
X128727200Y-52044600D03*
%TD*%
D35*
%TO.C,C54*%
X62994600Y-69512800D03*
X62994600Y-67612800D03*
%TD*%
D42*
%TO.C,C9*%
X77841400Y-67270000D03*
X77841400Y-64320000D03*
%TD*%
D26*
%TO.C,R4*%
X75954800Y-134973700D03*
X75954800Y-133148700D03*
%TD*%
D35*
%TO.C,C58*%
X61244600Y-82658400D03*
X61244600Y-80758400D03*
%TD*%
D11*
%TO.C,C19*%
X131257199Y-51562600D03*
X131257199Y-50012600D03*
%TD*%
D17*
%TO.C,C35*%
X124475200Y-95810000D03*
X124475200Y-97710000D03*
%TD*%
D48*
%TO.C,C48*%
X110251400Y-134424200D03*
X112151400Y-134424200D03*
%TD*%
D49*
%TO.C,J21*%
X62994600Y-56978400D03*
X62994600Y-54438400D03*
X62994600Y-51898400D03*
D50*
X55194600Y-48738400D03*
X55194600Y-60138400D03*
%TD*%
D17*
%TO.C,C63*%
X83140000Y-48610000D03*
X83140000Y-50510000D03*
%TD*%
D14*
%TO.C,R10*%
X105051600Y-122885000D03*
X105051600Y-124535000D03*
%TD*%
D46*
%TO.C,J24*%
X101589600Y-56553000D03*
X104129600Y-56553000D03*
X106669600Y-56553000D03*
D47*
X109829600Y-48753000D03*
X98429600Y-48753000D03*
%TD*%
D51*
%TO.C,J14*%
X124480200Y-121450000D03*
X124480200Y-123990000D03*
X124480200Y-126530000D03*
D52*
X132280200Y-129690000D03*
X132280200Y-118290000D03*
%TD*%
D51*
%TO.C,J15*%
X124480200Y-134610000D03*
X124480200Y-137150000D03*
X124480200Y-139690000D03*
D52*
X132280200Y-142850000D03*
X132280200Y-131450000D03*
%TD*%
D30*
%TO.C,C28*%
X86818503Y-135120000D03*
X84918503Y-135120000D03*
%TD*%
D35*
%TO.C,C57*%
X61244600Y-95798400D03*
X61244600Y-93898400D03*
%TD*%
D37*
%TO.C,R24*%
X109650000Y-91926000D03*
X108000000Y-91926000D03*
%TD*%
D53*
%TO.C,U2*%
X116530000Y-59240000D03*
D54*
X119070000Y-59240000D03*
X116530000Y-61780000D03*
X119070000Y-61780000D03*
X116530000Y-64320000D03*
X119070000Y-64320000D03*
X116530000Y-66860000D03*
X119070000Y-66860000D03*
X116530000Y-69400000D03*
X119070000Y-69400000D03*
X116530000Y-71940000D03*
X119070000Y-71940000D03*
X116530000Y-74480000D03*
X119070000Y-74480000D03*
X116530000Y-77020000D03*
X119070000Y-77020000D03*
X116530000Y-79560000D03*
X119070000Y-79560000D03*
X116530000Y-82100000D03*
X119070000Y-82100000D03*
X116530000Y-84640000D03*
X119070000Y-84640000D03*
X116530000Y-87180000D03*
X119070000Y-87180000D03*
X116530000Y-89720000D03*
X119070000Y-89720000D03*
X116530000Y-92260000D03*
X119070000Y-92260000D03*
X116530000Y-94800000D03*
X119070000Y-94800000D03*
X116530000Y-97340000D03*
X119070000Y-97340000D03*
X116530000Y-99880000D03*
X119070000Y-99880000D03*
X116530000Y-102420000D03*
X119070000Y-102420000D03*
X116530000Y-104960000D03*
X119070000Y-104960000D03*
X116530000Y-107500000D03*
X119070000Y-107500000D03*
X116530000Y-110040000D03*
X119070000Y-110040000D03*
X116530000Y-112580000D03*
X119070000Y-112580000D03*
X116530000Y-115120000D03*
X119070000Y-115120000D03*
D53*
X68390000Y-59240000D03*
D54*
X70930000Y-59240000D03*
X68390000Y-61780000D03*
X70930000Y-61780000D03*
X68390000Y-64320000D03*
X70930000Y-64320000D03*
X68390000Y-66860000D03*
X70930000Y-66860000D03*
X68390000Y-69400000D03*
X70930000Y-69400000D03*
X68390000Y-71940000D03*
X70930000Y-71940000D03*
X68390000Y-74480000D03*
X70930000Y-74480000D03*
X68390000Y-77020000D03*
X70930000Y-77020000D03*
X68390000Y-79560000D03*
X70930000Y-79560000D03*
X68390000Y-82100000D03*
X70930000Y-82100000D03*
X68390000Y-84640000D03*
X70930000Y-84640000D03*
X68390000Y-87180000D03*
X70930000Y-87180000D03*
X68390000Y-89720000D03*
X70930000Y-89720000D03*
X68390000Y-92260000D03*
X70930000Y-92260000D03*
X68390000Y-94800000D03*
X70930000Y-94800000D03*
X68390000Y-97340000D03*
X70930000Y-97340000D03*
X68390000Y-99880000D03*
X70930000Y-99880000D03*
X68390000Y-102420000D03*
X70930000Y-102420000D03*
X68390000Y-104960000D03*
X70930000Y-104960000D03*
X68390000Y-107500000D03*
X70930000Y-107500000D03*
X68390000Y-110040000D03*
X70930000Y-110040000D03*
X68390000Y-112580000D03*
X70930000Y-112580000D03*
X68390000Y-115120000D03*
X70930000Y-115120000D03*
%TD*%
D16*
%TO.C,R27*%
X92410700Y-77269200D03*
X94060700Y-77269200D03*
%TD*%
D11*
%TO.C,C5*%
X92875850Y-126975000D03*
X92875850Y-125425000D03*
%TD*%
D48*
%TO.C,C44*%
X110221400Y-132664200D03*
X112121400Y-132664200D03*
%TD*%
D14*
%TO.C,R14*%
X125922199Y-50012600D03*
X125922199Y-51662600D03*
%TD*%
D55*
%TO.C,J13*%
X114691400Y-137099200D03*
X112151400Y-137099200D03*
X109611400Y-137099200D03*
D56*
X106451400Y-144899200D03*
X117851400Y-144899200D03*
%TD*%
D36*
%TO.C,R12*%
X74650600Y-83197200D03*
X74650600Y-81547200D03*
%TD*%
D57*
%TO.C,J2*%
X78060000Y-108650000D03*
D58*
X78060000Y-113730000D03*
X78060000Y-118810000D03*
X78060000Y-123890000D03*
%TD*%
D26*
%TO.C,R1*%
X73964800Y-134973700D03*
X73964800Y-133148700D03*
%TD*%
D57*
%TO.C,J3*%
X78050000Y-87190000D03*
D58*
X78050000Y-92270000D03*
X78050000Y-97350000D03*
X78050000Y-102430000D03*
%TD*%
D17*
%TO.C,C67*%
X81380000Y-48610000D03*
X81380000Y-50510000D03*
%TD*%
D59*
%TO.C,D5*%
X96325850Y-117775000D03*
X100325850Y-117775000D03*
%TD*%
D24*
%TO.C,TP1*%
X89148300Y-86977080D03*
D25*
X89204800Y-87946711D03*
%TD*%
D60*
%TO.C,J4*%
X84918503Y-130942000D03*
D61*
X87458503Y-130942000D03*
X89998503Y-130942000D03*
X92538503Y-130942000D03*
X95078503Y-130942000D03*
X97618503Y-130942000D03*
X100158503Y-130942000D03*
X102698503Y-130942000D03*
D62*
X101308503Y-140192000D03*
X86308503Y-140192000D03*
X103005559Y-140894944D03*
X99611447Y-140894944D03*
X88005559Y-140894944D03*
X84611447Y-140894944D03*
X103708503Y-142592000D03*
D63*
X101308503Y-142592000D03*
D62*
X98908503Y-142592000D03*
X88708503Y-142592000D03*
D63*
X86308503Y-142592000D03*
D62*
X83908503Y-142592000D03*
X103005559Y-144289056D03*
X99611447Y-144289056D03*
X88005559Y-144289056D03*
X84611447Y-144289056D03*
X101308503Y-144992000D03*
X86308503Y-144992000D03*
%TD*%
D64*
X85580000Y-60100000D02*
X84770000Y-59290000D01*
X65880000Y-93900000D02*
X65880000Y-107210000D01*
X90760000Y-60100000D02*
X85580000Y-60100000D01*
X84030000Y-54620000D02*
X80086200Y-54620000D01*
X65880000Y-107210000D02*
X65880000Y-114600000D01*
X65880000Y-57940000D02*
X65880000Y-80770000D01*
X70380000Y-50510000D02*
X71380000Y-50510000D01*
X80086200Y-54620000D02*
X72380000Y-54620000D01*
X65880000Y-80770000D02*
X65880000Y-93900000D01*
X71380000Y-50510000D02*
X72380000Y-51510000D01*
X84770000Y-55360000D02*
X84030000Y-54620000D01*
X69200000Y-54620000D02*
X65880000Y-57940000D01*
X72380000Y-54620000D02*
X69200000Y-54620000D01*
X84770000Y-59290000D02*
X84770000Y-55360000D01*
X72380000Y-51510000D02*
X72380000Y-54620000D01*
X109423200Y-106883200D02*
X105873200Y-106883200D01*
X121412000Y-97688400D02*
X121412000Y-84582000D01*
X111340000Y-108800000D02*
X109423200Y-106883200D01*
X121412000Y-110998000D02*
X121412000Y-97688400D01*
X117120000Y-134110000D02*
X117120000Y-132842000D01*
X116400000Y-127840000D02*
X112530000Y-127840000D01*
X119180000Y-120930000D02*
X111340000Y-120930000D01*
X117120000Y-132842000D02*
X117120000Y-128560000D01*
X121412000Y-110998000D02*
X121412000Y-118698000D01*
X111340000Y-126650000D02*
X111340000Y-108800000D01*
X121412000Y-118698000D02*
X119180000Y-120930000D01*
X117120000Y-128560000D02*
X116400000Y-127840000D01*
X112530000Y-127840000D02*
X111340000Y-126650000D01*
X105873200Y-106883200D02*
X105870000Y-106880000D01*
G36*
X66695677Y-111979685D02*
G01*
X66716319Y-111996319D01*
X66773681Y-112053681D01*
X66807166Y-112115004D01*
X66810000Y-112141362D01*
X66810000Y-115348638D01*
X66790315Y-115415677D01*
X66773681Y-115436319D01*
X66716319Y-115493681D01*
X66654996Y-115527166D01*
X66628638Y-115530000D01*
X64941362Y-115530000D01*
X64874323Y-115510315D01*
X64853681Y-115493681D01*
X64796319Y-115436319D01*
X64762834Y-115374996D01*
X64760000Y-115348638D01*
X64760000Y-112141362D01*
X64779685Y-112074323D01*
X64796319Y-112053681D01*
X64853681Y-111996319D01*
X64915004Y-111962834D01*
X64941362Y-111960000D01*
X66628638Y-111960000D01*
X66695677Y-111979685D01*
G37*
G36*
X108475677Y-105929685D02*
G01*
X108496319Y-105946319D01*
X108553681Y-106003681D01*
X108587166Y-106065004D01*
X108590000Y-106091362D01*
X108590000Y-107778638D01*
X108570315Y-107845677D01*
X108553681Y-107866319D01*
X108496319Y-107923681D01*
X108434996Y-107957166D01*
X108408638Y-107960000D01*
X105211362Y-107960000D01*
X105144323Y-107940315D01*
X105123681Y-107923681D01*
X105056319Y-107856319D01*
X105022834Y-107794996D01*
X105020000Y-107768638D01*
X105020000Y-106091362D01*
X105039685Y-106024323D01*
X105056319Y-106003681D01*
X105113681Y-105946319D01*
X105175004Y-105912834D01*
X105201362Y-105910000D01*
X108408638Y-105910000D01*
X108475677Y-105929685D01*
G37*
M02*
