M48
; DRILL file {KiCad 9.0.3} date 2025-07-13T22:15:22+0700
; FORMAT={-:-/ absolute / metric / decimal}
; #@! TF.CreationDate,2025-07-13T22:15:22+07:00
; #@! TF.GenerationSoftware,Kicad,Pcbnew,9.0.3
; #@! TF.FileFunction,Plated,1,2,PTH
FMAT,2
METRIC
; #@! TA.AperFunction,Plated,PTH,ViaDrill
T1C0.400
; #@! TA.AperFunction,Plated,PTH,ComponentDrill
T2C0.500
; #@! TA.AperFunction,Plated,PTH,ComponentDrill
T3C1.000
; #@! TA.AperFunction,Plated,PTH,ComponentDrill
T4C1.300
; #@! TA.AperFunction,Plated,PTH,ComponentDrill
T5C1.700
; #@! TA.AperFunction,Plated,PTH,ComponentDrill
T6C3.200
; #@! TA.AperFunction,Plated,PTH,ComponentDrill
T7C4.000
%
G90
G05
T1
X54.102Y-50.292
X54.102Y-58.674
X54.102Y-63.373
X54.102Y-71.882
X54.102Y-76.581
X54.102Y-84.963
X54.102Y-89.662
X54.102Y-98.044
X54.102Y-103.124
X54.102Y-111.379
X55.245Y-50.292
X55.245Y-58.674
X55.245Y-63.373
X55.245Y-71.882
X55.245Y-76.581
X55.245Y-84.963
X55.245Y-89.662
X55.245Y-98.044
X55.245Y-103.124
X55.245Y-111.379
X56.388Y-50.292
X56.388Y-58.674
X56.388Y-63.373
X56.388Y-71.882
X56.388Y-76.581
X56.388Y-84.963
X56.388Y-89.662
X56.388Y-98.044
X56.388Y-103.124
X56.388Y-111.379
X58.42Y-69.469
X58.42Y-70.739
X58.42Y-82.677
X58.42Y-83.947
X59.69Y-69.469
X59.69Y-70.739
X59.69Y-72.009
X59.69Y-82.677
X59.69Y-83.947
X59.69Y-85.217
X59.691Y-67.623
X59.741Y-107.222
X59.767Y-93.912
X59.843Y-80.78
X59.944Y-50.165
X59.944Y-95.504
X59.944Y-97.028
X59.944Y-98.425
X59.944Y-109.093
X59.944Y-110.49
X59.944Y-111.887
X60.26Y-56.98
X60.96Y-72.009
X60.96Y-85.217
X61.214Y-50.165
X61.214Y-98.425
X61.214Y-111.887
X62.103Y-72.009
X62.103Y-85.217
X62.357Y-58.928
X62.357Y-61.722
X62.484Y-50.165
X62.484Y-98.425
X62.484Y-111.887
X63.246Y-72.009
X63.246Y-85.217
X63.627Y-58.928
X63.627Y-61.722
X63.754Y-50.165
X63.754Y-98.425
X63.754Y-111.887
X64.643Y-47.498
X64.643Y-48.895
X65.26Y-112.42
X65.264Y-113.263
X65.29Y-114.15
X65.32Y-114.98
X66.27Y-112.45
X66.274Y-113.293
X66.294Y-47.498
X66.3Y-114.18
X66.33Y-115.01
X67.945Y-47.498
X69.596Y-47.498
X69.596Y-48.895
X70.38Y-50.51
X72.39Y-135.001
X72.39Y-136.398
X72.39Y-137.795
X72.39Y-139.192
X72.39Y-140.589
X72.39Y-141.986
X72.39Y-143.256
X72.39Y-144.653
X73.66Y-136.398
X74.422Y-56.515
X74.93Y-136.398
X75.692Y-56.515
X75.946Y-47.625
X75.946Y-48.768
X75.946Y-49.911
X76.2Y-136.398
X76.327Y-79.883
X76.327Y-82.169
X76.454Y-70.155
X76.581Y-94.869
X76.581Y-99.822
X76.581Y-105.41
X76.581Y-111.252
X77.47Y-136.398
X77.597Y-79.883
X77.597Y-82.169
X78.486Y-94.869
X78.486Y-99.822
X78.486Y-105.41
X78.486Y-111.252
X78.74Y-136.398
X78.867Y-79.883
X78.867Y-82.169
X79.527Y-60.35
X79.756Y-47.498
X79.756Y-48.641
X79.756Y-67.183
X79.756Y-68.326
X80.01Y-62.865
X80.01Y-135.001
X80.01Y-136.398
X80.137Y-59.106
X80.137Y-79.883
X80.137Y-82.169
X80.391Y-94.869
X80.391Y-96.139
X80.391Y-97.282
X80.391Y-98.552
X80.391Y-99.822
X80.391Y-101.346
X80.391Y-102.489
X80.391Y-103.759
X80.391Y-105.41
X80.391Y-106.934
X80.391Y-108.077
X80.391Y-109.347
X80.391Y-110.617
X80.391Y-111.76
X80.391Y-113.03
X80.391Y-114.3
X80.391Y-115.443
X80.975Y-73.318
X81.255Y-60.376
X81.255Y-62.865
X81.407Y-47.498
X81.407Y-79.883
X81.407Y-82.169
X82.423Y-62.865
X82.677Y-79.883
X82.677Y-82.169
X83.185Y-47.498
X83.566Y-62.865
X83.947Y-79.883
X83.947Y-82.169
X84.201Y-89.027
X84.201Y-90.297
X84.201Y-91.567
X84.201Y-92.837
X84.201Y-94.107
X84.201Y-95.377
X84.201Y-96.647
X84.201Y-97.917
X84.201Y-99.187
X84.201Y-100.457
X84.201Y-101.727
X84.201Y-102.997
X84.919Y-110.49
X84.963Y-104.013
X85.344Y-87.884
X85.446Y-63.212
X85.446Y-65.47
X85.446Y-75.59
X85.446Y-81.128
X85.852Y-114.554
X85.852Y-115.824
X85.852Y-117.094
X85.852Y-118.364
X86.106Y-104.775
X86.614Y-79.883
X86.85Y-56.553
X87.376Y-47.625
X87.376Y-48.768
X87.376Y-49.911
X87.376Y-66.294
X87.376Y-67.564
X87.376Y-90.297
X87.376Y-91.567
X87.376Y-92.837
X87.376Y-94.107
X87.376Y-95.377
X87.376Y-96.647
X87.376Y-97.917
X87.376Y-99.187
X87.376Y-100.457
X87.376Y-101.727
X87.376Y-104.775
X88.392Y-82.55
X88.646Y-66.294
X88.646Y-67.564
X88.646Y-101.727
X88.646Y-104.775
X88.646Y-132.969
X88.646Y-134.239
X88.646Y-135.509
X88.773Y-73.152
X88.773Y-74.295
X88.773Y-75.565
X88.773Y-76.835
X88.773Y-78.105
X89.154Y-114.554
X89.154Y-115.824
X89.154Y-117.094
X89.154Y-118.364
X89.25Y-84.074
X89.563Y-92.608
X89.563Y-93.608
X89.563Y-94.608
X89.563Y-95.608
X89.563Y-96.608
X89.563Y-97.608
X89.563Y-98.661
X89.563Y-99.702
X89.662Y-82.55
X89.789Y-132.969
X89.789Y-134.239
X89.789Y-135.509
X89.916Y-66.294
X89.916Y-67.564
X89.916Y-101.727
X89.916Y-104.775
X89.916Y-127.0
X90.424Y-115.824
X90.424Y-117.094
X90.424Y-118.364
X90.424Y-119.888
X90.932Y-73.152
X90.932Y-74.295
X90.932Y-75.565
X90.932Y-76.835
X90.932Y-78.105
X90.932Y-79.375
X90.932Y-82.55
X91.186Y-101.727
X91.186Y-104.775
X91.694Y-115.824
X91.694Y-117.094
X91.694Y-118.364
X92.405Y-67.68
X92.405Y-70.23
X92.456Y-53.848
X92.456Y-101.727
X92.456Y-104.775
X92.964Y-115.824
X92.964Y-117.094
X92.964Y-118.364
X93.447Y-62.865
X93.701Y-91.426
X93.726Y-53.848
X93.726Y-101.727
X93.726Y-104.775
X94.234Y-115.824
X94.234Y-117.094
X94.234Y-118.364
X94.361Y-127.0
X94.615Y-62.865
X94.996Y-47.625
X94.996Y-48.768
X94.996Y-49.911
X94.996Y-100.457
X94.996Y-101.727
X94.996Y-104.775
X95.072Y-77.267
X95.072Y-79.719
X95.072Y-80.95
X95.072Y-82.169
X95.081Y-78.489
X95.123Y-53.848
X95.123Y-55.118
X95.123Y-56.515
X95.123Y-57.785
X95.631Y-127.0
X95.758Y-62.865
X95.758Y-112.014
X95.758Y-113.284
X95.758Y-114.554
X95.758Y-115.824
X96.266Y-100.457
X96.266Y-101.727
X96.266Y-104.775
X96.901Y-121.793
X96.901Y-123.063
X96.901Y-124.333
X96.901Y-125.603
X96.901Y-127.0
X97.028Y-62.865
X97.028Y-89.027
X97.1Y-108.82
X97.536Y-100.457
X97.536Y-101.727
X97.536Y-104.775
X97.671Y-84.074
X98.095Y-67.513
X98.171Y-121.793
X98.171Y-123.063
X98.171Y-124.333
X98.171Y-125.603
X98.171Y-127.0
X98.273Y-62.865
X98.679Y-88.9
X98.806Y-100.457
X98.806Y-101.727
X98.806Y-104.775
X99.085Y-90.036
X99.085Y-91.036
X99.085Y-92.071
X99.085Y-93.126
X99.085Y-94.126
X99.085Y-95.126
X99.433Y-75.263
X99.433Y-77.327
X99.441Y-62.865
X99.441Y-127.0
X99.746Y-67.539
X99.746Y-69.494
X99.949Y-47.625
X99.949Y-48.768
X99.949Y-49.911
X100.076Y-100.457
X100.076Y-101.727
X100.076Y-104.775
X100.584Y-62.865
X100.79Y-82.08
X101.261Y-86.326
X101.346Y-67.97
X101.346Y-100.457
X101.346Y-101.727
X101.625Y-54.37
X101.625Y-66.472
X101.694Y-78.41
X101.7Y-76.23
X101.702Y-77.41
X101.702Y-79.41
X101.702Y-80.467
X102.108Y-52.197
X102.108Y-85.42
X102.616Y-100.457
X102.616Y-101.727
X102.616Y-109.093
X102.616Y-110.236
X102.743Y-62.865
X103.251Y-67.945
X103.251Y-69.215
X103.378Y-52.197
X103.759Y-109.093
X103.759Y-110.236
X103.886Y-100.457
X103.886Y-101.727
X103.988Y-62.865
X104.115Y-85.395
X104.165Y-130.048
X104.498Y-87.071
X104.521Y-67.945
X104.521Y-69.215
X104.648Y-52.197
X104.9Y-92.71
X104.902Y-109.093
X104.902Y-110.236
X105.156Y-62.865
X105.258Y-86.284
X105.283Y-100.457
X105.283Y-101.727
X105.308Y-130.048
X105.308Y-131.191
X105.639Y-106.375
X105.639Y-107.442
X105.791Y-67.945
X105.791Y-69.215
X105.918Y-52.197
X106.045Y-109.093
X106.045Y-110.236
X106.299Y-62.865
X106.3Y-125.97
X106.451Y-130.048
X106.451Y-131.191
X106.553Y-100.457
X106.553Y-101.727
X106.556Y-135.826
X106.556Y-137.096
X106.556Y-138.366
X106.556Y-139.636
X106.68Y-127.635
X106.756Y-106.375
X106.756Y-107.442
X106.934Y-79.033
X107.023Y-88.321
X107.023Y-89.516
X107.023Y-90.735
X107.023Y-91.926
X107.023Y-93.126
X107.061Y-67.945
X107.061Y-69.215
X107.061Y-86.741
X107.188Y-52.197
X107.188Y-109.093
X107.188Y-110.236
X107.594Y-130.048
X107.594Y-131.191
X107.699Y-135.826
X107.699Y-137.096
X107.699Y-138.366
X107.699Y-139.636
X107.823Y-100.457
X107.823Y-101.727
X107.823Y-127.0
X107.874Y-106.375
X107.874Y-107.442
X108.153Y-81.839
X108.331Y-67.945
X108.331Y-69.215
X108.331Y-86.741
X108.331Y-109.093
X108.331Y-110.236
X108.458Y-52.197
X108.458Y-54.864
X108.458Y-56.134
X108.458Y-57.404
X108.712Y-126.111
X108.712Y-132.334
X108.712Y-133.604
X108.712Y-134.874
X108.737Y-130.048
X108.737Y-131.191
X108.842Y-139.636
X109.449Y-109.093
X109.449Y-110.236
X109.449Y-111.379
X109.449Y-112.547
X109.449Y-113.69
X109.449Y-114.833
X109.449Y-116.078
X109.449Y-117.221
X109.449Y-118.364
X109.449Y-119.507
X109.449Y-120.65
X109.449Y-121.793
X109.449Y-122.936
X109.449Y-124.079
X109.449Y-125.222
X109.601Y-67.945
X109.601Y-69.215
X109.601Y-86.741
X109.65Y-100.05
X109.728Y-52.197
X109.728Y-54.864
X109.728Y-56.134
X109.728Y-57.404
X109.88Y-130.048
X109.88Y-131.191
X109.985Y-139.636
X110.795Y-70.548
X110.795Y-71.552
X110.795Y-72.555
X110.795Y-73.558
X110.795Y-74.562
X110.795Y-75.565
X110.795Y-76.568
X110.795Y-77.572
X110.871Y-67.945
X110.871Y-69.215
X110.998Y-130.048
X111.023Y-131.191
X111.963Y-55.575
X112.141Y-131.191
X112.166Y-130.048
X112.268Y-67.945
X112.268Y-69.215
X112.268Y-70.485
X112.268Y-71.755
X112.268Y-73.025
X112.268Y-74.295
X112.903Y-84.709
X112.903Y-85.979
X112.903Y-87.249
X112.903Y-90.805
X112.903Y-92.075
X112.903Y-93.345
X112.903Y-94.615
X112.903Y-95.885
X112.903Y-97.155
X113.157Y-122.555
X113.157Y-125.476
X113.634Y-117.624
X113.634Y-118.624
X114.691Y-139.662
X115.442Y-117.624
X115.442Y-118.624
X116.865Y-48.895
X116.967Y-125.857
X117.12Y-134.11
X118.14Y-51.736
X119.126Y-127.508
X119.126Y-128.651
X119.126Y-129.794
X119.507Y-134.112
X119.507Y-135.382
X119.507Y-140.716
X119.532Y-54.102
X120.269Y-127.508
X120.269Y-128.651
X120.269Y-129.794
X120.65Y-122.301
X120.65Y-134.112
X120.65Y-135.382
X120.65Y-140.716
X121.158Y-54.712
X121.22Y-52.886
X121.412Y-127.508
X121.412Y-128.651
X121.412Y-129.794
X121.793Y-134.112
X121.793Y-135.382
X121.793Y-140.716
X121.92Y-121.158
X121.92Y-122.301
X122.14Y-60.64
X122.682Y-128.651
X122.682Y-129.794
X123.19Y-66.929
X123.19Y-80.264
X123.317Y-106.426
X123.444Y-93.472
X123.825Y-128.651
X123.825Y-129.794
X124.46Y-66.929
X124.46Y-80.264
X124.46Y-131.785
X124.485Y-48.768
X124.485Y-119.863
X124.587Y-106.426
X124.714Y-93.472
X124.714Y-118.237
X124.968Y-128.651
X124.968Y-129.794
X125.73Y-66.929
X125.73Y-80.264
X125.857Y-106.426
X125.933Y-48.768
X125.984Y-93.472
X126.111Y-118.237
X126.111Y-119.507
X126.111Y-128.651
X126.111Y-129.794
X127.0Y-66.929
X127.0Y-68.199
X127.0Y-80.264
X127.0Y-81.534
X127.127Y-106.426
X127.127Y-107.696
X127.254Y-93.472
X127.254Y-94.742
X127.254Y-128.651
X127.254Y-129.794
X127.33Y-124.003
X127.381Y-118.237
X127.381Y-119.507
X127.381Y-120.904
X127.381Y-122.174
X127.387Y-51.665
X127.483Y-55.499
X127.508Y-134.112
X127.508Y-135.382
X127.508Y-136.652
X127.508Y-137.922
X127.762Y-71.425
X127.762Y-84.582
X127.762Y-97.714
X127.762Y-110.846
X128.397Y-128.651
X128.397Y-129.794
X128.753Y-53.391
X129.677Y-51.165
X130.937Y-67.31
X130.937Y-75.565
X130.937Y-80.391
X130.937Y-88.773
X130.937Y-93.472
X130.937Y-101.854
X131.064Y-106.68
X131.064Y-115.062
X131.064Y-119.761
X131.064Y-128.143
X131.064Y-132.969
X131.064Y-141.351
X131.064Y-144.399
X131.318Y-52.832
X131.318Y-53.975
X131.318Y-55.118
X132.08Y-67.31
X132.08Y-75.565
X132.08Y-80.391
X132.08Y-88.773
X132.08Y-93.472
X132.08Y-101.854
X132.207Y-106.68
X132.207Y-115.062
X132.207Y-119.761
X132.207Y-128.143
X132.207Y-132.969
X132.207Y-141.351
X132.207Y-144.399
X132.461Y-52.857
X132.461Y-53.975
X132.461Y-55.118
X133.223Y-67.31
X133.223Y-75.565
X133.223Y-80.391
X133.223Y-88.773
X133.223Y-93.472
X133.223Y-101.854
X133.35Y-106.68
X133.35Y-115.062
X133.35Y-119.761
X133.35Y-128.143
X133.35Y-132.969
X133.35Y-141.351
X133.35Y-144.399
T2
X83.909Y-142.592
X84.611Y-140.895
X84.611Y-144.289
X86.309Y-140.192
X86.309Y-144.992
X88.006Y-140.895
X88.006Y-144.289
X88.709Y-142.592
X98.909Y-142.592
X99.611Y-140.895
X99.611Y-144.289
X101.309Y-140.192
X101.309Y-144.992
X103.006Y-140.895
X103.006Y-144.289
X103.709Y-142.592
T3
X68.39Y-59.24
X68.39Y-61.78
X68.39Y-64.32
X68.39Y-66.86
X68.39Y-69.4
X68.39Y-71.94
X68.39Y-74.48
X68.39Y-77.02
X68.39Y-79.56
X68.39Y-82.1
X68.39Y-84.64
X68.39Y-87.18
X68.39Y-89.72
X68.39Y-92.26
X68.39Y-94.8
X68.39Y-97.34
X68.39Y-99.88
X68.39Y-102.42
X68.39Y-104.96
X68.39Y-107.5
X68.39Y-110.04
X68.39Y-112.58
X68.39Y-115.12
X70.93Y-59.24
X70.93Y-61.78
X70.93Y-64.32
X70.93Y-66.86
X70.93Y-69.4
X70.93Y-71.94
X70.93Y-74.48
X70.93Y-77.02
X70.93Y-79.56
X70.93Y-82.1
X70.93Y-84.64
X70.93Y-87.18
X70.93Y-89.72
X70.93Y-92.26
X70.93Y-94.8
X70.93Y-97.34
X70.93Y-99.88
X70.93Y-102.42
X70.93Y-104.96
X70.93Y-107.5
X70.93Y-110.04
X70.93Y-112.58
X70.93Y-115.12
X84.919Y-130.942
X87.459Y-130.942
X89.999Y-130.942
X92.539Y-130.942
X95.079Y-130.942
X97.619Y-130.942
X100.159Y-130.942
X102.699Y-130.942
X116.53Y-59.24
X116.53Y-61.78
X116.53Y-64.32
X116.53Y-66.86
X116.53Y-69.4
X116.53Y-71.94
X116.53Y-74.48
X116.53Y-77.02
X116.53Y-79.56
X116.53Y-82.1
X116.53Y-84.64
X116.53Y-87.18
X116.53Y-89.72
X116.53Y-92.26
X116.53Y-94.8
X116.53Y-97.34
X116.53Y-99.88
X116.53Y-102.42
X116.53Y-104.96
X116.53Y-107.5
X116.53Y-110.04
X116.53Y-112.58
X116.53Y-115.12
X119.07Y-59.24
X119.07Y-61.78
X119.07Y-64.32
X119.07Y-66.86
X119.07Y-69.4
X119.07Y-71.94
X119.07Y-74.48
X119.07Y-77.02
X119.07Y-79.56
X119.07Y-82.1
X119.07Y-84.64
X119.07Y-87.18
X119.07Y-89.72
X119.07Y-92.26
X119.07Y-94.8
X119.07Y-97.34
X119.07Y-99.88
X119.07Y-102.42
X119.07Y-104.96
X119.07Y-107.5
X119.07Y-110.04
X119.07Y-112.58
X119.07Y-115.12
T4
X78.05Y-87.19
X78.05Y-92.27
X78.05Y-97.35
X78.05Y-102.43
X78.06Y-108.65
X78.06Y-113.73
X78.06Y-118.81
X78.06Y-123.89
T5
X55.448Y-135.0
X55.448Y-139.7
X55.448Y-144.4
X68.398Y-137.2
X68.398Y-142.2
T6
X86.309Y-142.592
X101.309Y-142.592
T7
X57.608Y-117.96
X57.608Y-127.96
M30
