%TF.GenerationSoftware,KiCad,Pcbnew,9.0.3*%
%TF.CreationDate,2025-07-13T22:15:22+07:00*%
%TF.ProjectId,Automative_Hexapod,4175746f-6d61-4746-9976-655f48657861,rev?*%
%TF.SameCoordinates,Original*%
%TF.FileFunction,Drillmap*%
%TF.FilePolarity,Positive*%
%FSLAX45Y45*%
G04 Gerber Fmt 4.5, Leading zero omitted, Abs format (unit mm)*
G04 Created by KiCad (PCBNEW 9.0.3) date 2025-07-13 22:15:22*
%MOMM*%
%LPD*%
G01*
G04 APERTURE LIST*
%ADD10C,0.050000*%
%ADD11C,0.200000*%
G04 APERTURE END LIST*
D10*
X5350000Y-4700000D02*
X13400000Y-4700000D01*
X13400000Y-14690000D01*
X5350000Y-14690000D01*
X5350000Y-4700000D01*
D11*
X5608277Y-15003984D02*
X5608277Y-14803984D01*
X5608277Y-14803984D02*
X5655896Y-14803984D01*
X5655896Y-14803984D02*
X5684467Y-14813508D01*
X5684467Y-14813508D02*
X5703515Y-14832555D01*
X5703515Y-14832555D02*
X5713039Y-14851603D01*
X5713039Y-14851603D02*
X5722562Y-14889698D01*
X5722562Y-14889698D02*
X5722562Y-14918269D01*
X5722562Y-14918269D02*
X5713039Y-14956365D01*
X5713039Y-14956365D02*
X5703515Y-14975412D01*
X5703515Y-14975412D02*
X5684467Y-14994460D01*
X5684467Y-14994460D02*
X5655896Y-15003984D01*
X5655896Y-15003984D02*
X5608277Y-15003984D01*
X5808277Y-15003984D02*
X5808277Y-14870650D01*
X5808277Y-14908746D02*
X5817801Y-14889698D01*
X5817801Y-14889698D02*
X5827324Y-14880174D01*
X5827324Y-14880174D02*
X5846372Y-14870650D01*
X5846372Y-14870650D02*
X5865420Y-14870650D01*
X5932086Y-15003984D02*
X5932086Y-14870650D01*
X5932086Y-14803984D02*
X5922562Y-14813508D01*
X5922562Y-14813508D02*
X5932086Y-14823031D01*
X5932086Y-14823031D02*
X5941610Y-14813508D01*
X5941610Y-14813508D02*
X5932086Y-14803984D01*
X5932086Y-14803984D02*
X5932086Y-14823031D01*
X6055896Y-15003984D02*
X6036848Y-14994460D01*
X6036848Y-14994460D02*
X6027324Y-14975412D01*
X6027324Y-14975412D02*
X6027324Y-14803984D01*
X6160658Y-15003984D02*
X6141610Y-14994460D01*
X6141610Y-14994460D02*
X6132086Y-14975412D01*
X6132086Y-14975412D02*
X6132086Y-14803984D01*
X6389229Y-15003984D02*
X6389229Y-14803984D01*
X6389229Y-14803984D02*
X6455896Y-14946841D01*
X6455896Y-14946841D02*
X6522562Y-14803984D01*
X6522562Y-14803984D02*
X6522562Y-15003984D01*
X6703515Y-15003984D02*
X6703515Y-14899222D01*
X6703515Y-14899222D02*
X6693991Y-14880174D01*
X6693991Y-14880174D02*
X6674943Y-14870650D01*
X6674943Y-14870650D02*
X6636848Y-14870650D01*
X6636848Y-14870650D02*
X6617801Y-14880174D01*
X6703515Y-14994460D02*
X6684467Y-15003984D01*
X6684467Y-15003984D02*
X6636848Y-15003984D01*
X6636848Y-15003984D02*
X6617801Y-14994460D01*
X6617801Y-14994460D02*
X6608277Y-14975412D01*
X6608277Y-14975412D02*
X6608277Y-14956365D01*
X6608277Y-14956365D02*
X6617801Y-14937317D01*
X6617801Y-14937317D02*
X6636848Y-14927793D01*
X6636848Y-14927793D02*
X6684467Y-14927793D01*
X6684467Y-14927793D02*
X6703515Y-14918269D01*
X6798753Y-14870650D02*
X6798753Y-15070650D01*
X6798753Y-14880174D02*
X6817801Y-14870650D01*
X6817801Y-14870650D02*
X6855896Y-14870650D01*
X6855896Y-14870650D02*
X6874943Y-14880174D01*
X6874943Y-14880174D02*
X6884467Y-14889698D01*
X6884467Y-14889698D02*
X6893991Y-14908746D01*
X6893991Y-14908746D02*
X6893991Y-14965888D01*
X6893991Y-14965888D02*
X6884467Y-14984936D01*
X6884467Y-14984936D02*
X6874943Y-14994460D01*
X6874943Y-14994460D02*
X6855896Y-15003984D01*
X6855896Y-15003984D02*
X6817801Y-15003984D01*
X6817801Y-15003984D02*
X6798753Y-14994460D01*
X6979705Y-14984936D02*
X6989229Y-14994460D01*
X6989229Y-14994460D02*
X6979705Y-15003984D01*
X6979705Y-15003984D02*
X6970182Y-14994460D01*
X6970182Y-14994460D02*
X6979705Y-14984936D01*
X6979705Y-14984936D02*
X6979705Y-15003984D01*
X6979705Y-14880174D02*
X6989229Y-14889698D01*
X6989229Y-14889698D02*
X6979705Y-14899222D01*
X6979705Y-14899222D02*
X6970182Y-14889698D01*
X6970182Y-14889698D02*
X6979705Y-14880174D01*
X6979705Y-14880174D02*
X6979705Y-14899222D01*
M02*
