%TF.GenerationSoftware,KiCad,Pcbnew,9.0.3*%
%TF.CreationDate,2025-07-13T22:15:26+07:00*%
%TF.ProjectId,Automative_Hexapod,4175746f-6d61-4746-9976-655f48657861,rev?*%
%TF.SameCoordinates,Original*%
%TF.FileFunction,Paste,Bot*%
%TF.FilePolarity,Positive*%
%FSLAX46Y46*%
G04 Gerber Fmt 4.6, Leading zero omitted, Abs format (unit mm)*
G04 Created by KiCad (PCBNEW 9.0.3) date 2025-07-13 22:15:26*
%MOMM*%
%LPD*%
G01*
G04 APERTURE LIST*
G04 Aperture macros list*
%AMRoundRect*
0 Rectangle with rounded corners*
0 $1 Rounding radius*
0 $2 $3 $4 $5 $6 $7 $8 $9 X,Y pos of 4 corners*
0 Add a 4 corners polygon primitive as box body*
4,1,4,$2,$3,$4,$5,$6,$7,$8,$9,$2,$3,0*
0 Add four circle primitives for the rounded corners*
1,1,$1+$1,$2,$3*
1,1,$1+$1,$4,$5*
1,1,$1+$1,$6,$7*
1,1,$1+$1,$8,$9*
0 Add four rect primitives between the rounded corners*
20,1,$1+$1,$2,$3,$4,$5,0*
20,1,$1+$1,$4,$5,$6,$7,0*
20,1,$1+$1,$6,$7,$8,$9,0*
20,1,$1+$1,$8,$9,$2,$3,0*%
G04 Aperture macros list end*
%ADD10RoundRect,0.224600X0.449600X-0.224600X0.449600X0.224600X-0.449600X0.224600X-0.449600X-0.224600X0*%
%ADD11RoundRect,0.279680X-1.169520X0.419520X-1.169520X-0.419520X1.169520X-0.419520X1.169520X0.419520X0*%
%ADD12RoundRect,0.259680X-1.189520X0.389520X-1.189520X-0.389520X1.189520X-0.389520X1.189520X0.389520X0*%
%ADD13RoundRect,0.279680X1.169520X-0.419520X1.169520X0.419520X-1.169520X0.419520X-1.169520X-0.419520X0*%
%ADD14RoundRect,0.259680X1.189520X-0.389520X1.189520X0.389520X-1.189520X0.389520X-1.189520X-0.389520X0*%
%ADD15RoundRect,0.174600X-0.249600X0.174600X-0.249600X-0.174600X0.249600X-0.174600X0.249600X0.174600X0*%
%ADD16RoundRect,0.224600X-0.449600X0.224600X-0.449600X-0.224600X0.449600X-0.224600X0.449600X0.224600X0*%
%ADD17R,1.066800X0.431800*%
%ADD18RoundRect,0.279680X-0.419520X-1.169520X0.419520X-1.169520X0.419520X1.169520X-0.419520X1.169520X0*%
%ADD19RoundRect,0.259680X-0.389520X-1.189520X0.389520X-1.189520X0.389520X1.189520X-0.389520X1.189520X0*%
%ADD20RoundRect,0.174600X-0.174600X-0.249600X0.174600X-0.249600X0.174600X0.249600X-0.174600X0.249600X0*%
%ADD21RoundRect,0.218350X-0.218350X-0.430850X0.218350X-0.430850X0.218350X0.430850X-0.218350X0.430850X0*%
%ADD22RoundRect,0.225219X-0.236481X-0.423981X0.236481X-0.423981X0.236481X0.423981X-0.236481X0.423981X0*%
G04 APERTURE END LIST*
D10*
%TO.C,C37*%
X119140000Y-125900000D03*
X119140000Y-124000000D03*
%TD*%
D11*
%TO.C,J7*%
X124475200Y-73950000D03*
X124475200Y-71410000D03*
X124475200Y-68870000D03*
D12*
X132275200Y-65710000D03*
X132275200Y-77110000D03*
%TD*%
D13*
%TO.C,J20*%
X62994600Y-51898400D03*
X62994600Y-54438400D03*
X62994600Y-56978400D03*
D14*
X55194600Y-60138400D03*
X55194600Y-48738400D03*
%TD*%
D11*
%TO.C,J11*%
X124475200Y-126540000D03*
X124475200Y-124000000D03*
X124475200Y-121460000D03*
D12*
X132275200Y-118300000D03*
X132275200Y-129700000D03*
%TD*%
D11*
%TO.C,J12*%
X124475200Y-139690000D03*
X124475200Y-137150000D03*
X124475200Y-134610000D03*
D12*
X132275200Y-131450000D03*
X132275200Y-142850000D03*
%TD*%
D15*
%TO.C,R40*%
X78187000Y-71668399D03*
X78187000Y-73318399D03*
%TD*%
D13*
%TO.C,J16*%
X62994600Y-104688400D03*
X62994600Y-107228400D03*
X62994600Y-109768400D03*
D14*
X55194600Y-112928400D03*
X55194600Y-101528400D03*
%TD*%
D13*
%TO.C,J18*%
X62994600Y-78218400D03*
X62994600Y-80758400D03*
X62994600Y-83298400D03*
D14*
X55194600Y-86458400D03*
X55194600Y-75058400D03*
%TD*%
D10*
%TO.C,C66*%
X72657000Y-56451400D03*
X72657000Y-54551400D03*
%TD*%
%TO.C,C42*%
X120880000Y-125900000D03*
X120880000Y-124000000D03*
%TD*%
D16*
%TO.C,C30*%
X76447000Y-71418399D03*
X76447000Y-73318399D03*
%TD*%
%TO.C,C55*%
X68000000Y-48610000D03*
X68000000Y-50510000D03*
%TD*%
D17*
%TO.C,Q3*%
X76327000Y-77020000D03*
X76327000Y-75119998D03*
X78359000Y-76069999D03*
%TD*%
D11*
%TO.C,J8*%
X124475200Y-87110000D03*
X124475200Y-84570000D03*
X124475200Y-82030000D03*
D12*
X132275200Y-78870000D03*
X132275200Y-90270000D03*
%TD*%
D11*
%TO.C,J6*%
X124485400Y-60706000D03*
X124485400Y-58166000D03*
X124485400Y-55626000D03*
X124485400Y-53086000D03*
D12*
X132285400Y-49946000D03*
X132285400Y-63846000D03*
%TD*%
D11*
%TO.C,J10*%
X124475200Y-113390000D03*
X124475200Y-110850000D03*
X124475200Y-108310000D03*
D12*
X132275200Y-105150000D03*
X132275200Y-116550000D03*
%TD*%
D10*
%TO.C,C47*%
X121767600Y-139050000D03*
X121767600Y-137150000D03*
%TD*%
D18*
%TO.C,J22*%
X82677000Y-56451400D03*
X80137000Y-56451400D03*
X77597000Y-56451400D03*
D19*
X74437000Y-48651400D03*
X85837000Y-48651400D03*
%TD*%
D16*
%TO.C,C60*%
X66260000Y-48610000D03*
X66260000Y-50510000D03*
%TD*%
D20*
%TO.C,R38*%
X72942000Y-77020000D03*
X74592000Y-77020000D03*
%TD*%
D16*
%TO.C,C29*%
X74497000Y-71418399D03*
X74497000Y-73318399D03*
%TD*%
D20*
%TO.C,R39*%
X72942000Y-75598399D03*
X74592000Y-75598399D03*
%TD*%
D10*
%TO.C,C43*%
X120017600Y-139050000D03*
X120017600Y-137150000D03*
%TD*%
D21*
%TO.C,D4*%
X110098500Y-48412400D03*
X111973500Y-48412400D03*
%TD*%
D11*
%TO.C,J5*%
X81215000Y-77380000D03*
X81215000Y-74840000D03*
D12*
X89015000Y-71660000D03*
X89015000Y-80560000D03*
%TD*%
D10*
%TO.C,C62*%
X70897000Y-56451400D03*
X70897000Y-54551400D03*
%TD*%
D13*
%TO.C,J17*%
X62994600Y-91358400D03*
X62994600Y-93898400D03*
X62994600Y-96438400D03*
D14*
X55194600Y-99598400D03*
X55194600Y-88198400D03*
%TD*%
D11*
%TO.C,J9*%
X124475200Y-100250000D03*
X124475200Y-97710000D03*
X124475200Y-95170000D03*
D12*
X132275200Y-92010000D03*
X132275200Y-103410000D03*
%TD*%
D13*
%TO.C,J19*%
X62994600Y-65068400D03*
X62994600Y-67608400D03*
X62994600Y-70148400D03*
D14*
X55194600Y-73308400D03*
X55194600Y-61908400D03*
%TD*%
D22*
%TO.C,R7*%
X106783500Y-48412400D03*
X108608500Y-48412400D03*
%TD*%
M02*
